<mxfile host="app.diagrams.net" modified="2020-10-13T10:17:31.195Z" agent="5.0 (Windows NT 10.0; Win64; x64) AppleWebKit/537.36 (KHTML, like Gecko) Chrome/85.0.4183.121 Safari/537.36" etag="Ro69x7pupS-RAOlBz2nS" version="13.7.7" type="github" pages="6">
  <diagram id="G0b43TNHrudwk34S1h_d" name="Page-1">
    <mxGraphModel dx="1422" dy="745" grid="1" gridSize="10" guides="1" tooltips="1" connect="1" arrows="1" fold="1" page="1" pageScale="1" pageWidth="850" pageHeight="1100" math="0" shadow="0">
      <root>
        <mxCell id="0" />
        <mxCell id="1" parent="0" />
        <mxCell id="XtIQ3_ar5iQPv5mUtwHv-1" value="" style="ellipse;shape=cloud;whiteSpace=wrap;html=1;" vertex="1" parent="1">
          <mxGeometry x="40" y="120" width="830" height="560" as="geometry" />
        </mxCell>
        <mxCell id="XtIQ3_ar5iQPv5mUtwHv-2" value="" style="ellipse;shape=cloud;whiteSpace=wrap;html=1;" vertex="1" parent="1">
          <mxGeometry x="370" y="200" width="460" height="350" as="geometry" />
        </mxCell>
        <mxCell id="XtIQ3_ar5iQPv5mUtwHv-3" value="MASTER&amp;nbsp;" style="whiteSpace=wrap;html=1;aspect=fixed;" vertex="1" parent="1">
          <mxGeometry x="450" y="370" width="80" height="80" as="geometry" />
        </mxCell>
        <mxCell id="XtIQ3_ar5iQPv5mUtwHv-5" value="WORKER" style="whiteSpace=wrap;html=1;aspect=fixed;" vertex="1" parent="1">
          <mxGeometry x="570" y="420" width="80" height="80" as="geometry" />
        </mxCell>
        <mxCell id="XtIQ3_ar5iQPv5mUtwHv-6" value="S3" style="shape=cylinder3;whiteSpace=wrap;html=1;boundedLbl=1;backgroundOutline=1;size=15;" vertex="1" parent="1">
          <mxGeometry x="470" y="510" width="60" height="80" as="geometry" />
        </mxCell>
        <mxCell id="XtIQ3_ar5iQPv5mUtwHv-7" value="INSTALL KOPS&lt;br&gt;AWSCLI&lt;br&gt;kubectl&lt;br&gt;.kube/config&lt;br&gt;ssh-key" style="whiteSpace=wrap;html=1;aspect=fixed;" vertex="1" parent="1">
          <mxGeometry x="140" y="360" width="130" height="130" as="geometry" />
        </mxCell>
        <mxCell id="XtIQ3_ar5iQPv5mUtwHv-8" value="ASG" style="whiteSpace=wrap;html=1;aspect=fixed;" vertex="1" parent="1">
          <mxGeometry x="270" y="220" width="80" height="80" as="geometry" />
        </mxCell>
        <mxCell id="XtIQ3_ar5iQPv5mUtwHv-9" value="Launch Configuration&lt;br&gt;master&lt;br&gt;worker" style="whiteSpace=wrap;html=1;aspect=fixed;" vertex="1" parent="1">
          <mxGeometry x="300" y="450" width="80" height="80" as="geometry" />
        </mxCell>
        <mxCell id="XtIQ3_ar5iQPv5mUtwHv-10" value="Actor" style="shape=umlActor;verticalLabelPosition=bottom;verticalAlign=top;html=1;outlineConnect=0;" vertex="1" parent="1">
          <mxGeometry x="50" y="710" width="30" height="60" as="geometry" />
        </mxCell>
        <mxCell id="XtIQ3_ar5iQPv5mUtwHv-13" value="springapp.com" style="endArrow=classic;html=1;" edge="1" parent="1" target="XtIQ3_ar5iQPv5mUtwHv-1">
          <mxGeometry width="50" height="50" relative="1" as="geometry">
            <mxPoint x="70" y="750" as="sourcePoint" />
            <mxPoint x="120" y="700" as="targetPoint" />
          </mxGeometry>
        </mxCell>
        <mxCell id="XtIQ3_ar5iQPv5mUtwHv-14" value="EKS" style="shape=cylinder3;whiteSpace=wrap;html=1;boundedLbl=1;backgroundOutline=1;size=15;" vertex="1" parent="1">
          <mxGeometry x="440" y="700" width="170" height="160" as="geometry" />
        </mxCell>
        <mxCell id="XtIQ3_ar5iQPv5mUtwHv-15" value="/login&lt;br&gt;/registration&lt;br&gt;" style="whiteSpace=wrap;html=1;aspect=fixed;" vertex="1" parent="1">
          <mxGeometry x="680" y="440" width="90" height="90" as="geometry" />
        </mxCell>
        <mxCell id="XtIQ3_ar5iQPv5mUtwHv-16" value="" style="endArrow=classic;html=1;" edge="1" parent="1">
          <mxGeometry width="50" height="50" relative="1" as="geometry">
            <mxPoint x="180" y="800" as="sourcePoint" />
            <mxPoint x="450" y="520" as="targetPoint" />
          </mxGeometry>
        </mxCell>
        <mxCell id="XtIQ3_ar5iQPv5mUtwHv-17" value="mavenapp" style="edgeLabel;html=1;align=center;verticalAlign=middle;resizable=0;points=[];" vertex="1" connectable="0" parent="XtIQ3_ar5iQPv5mUtwHv-16">
          <mxGeometry x="-0.1344" y="1" relative="1" as="geometry">
            <mxPoint as="offset" />
          </mxGeometry>
        </mxCell>
        <mxCell id="XtIQ3_ar5iQPv5mUtwHv-18" value="Actor" style="shape=umlActor;verticalLabelPosition=bottom;verticalAlign=top;html=1;outlineConnect=0;" vertex="1" parent="1">
          <mxGeometry x="140" y="790" width="30" height="60" as="geometry" />
        </mxCell>
        <mxCell id="XtIQ3_ar5iQPv5mUtwHv-19" value="&lt;span&gt;WORKER&lt;/span&gt;" style="rounded=0;whiteSpace=wrap;html=1;" vertex="1" parent="1">
          <mxGeometry x="570" y="330" width="120" height="60" as="geometry" />
        </mxCell>
        <mxCell id="XtIQ3_ar5iQPv5mUtwHv-21" value="mongo" style="shape=cylinder3;whiteSpace=wrap;html=1;boundedLbl=1;backgroundOutline=1;size=15;" vertex="1" parent="1">
          <mxGeometry x="550" y="280" width="60" height="50" as="geometry" />
        </mxCell>
      </root>
    </mxGraphModel>
  </diagram>
  <diagram id="FLfAJn9C0KTlsqEFaz_y" name="Page-2">
    <mxGraphModel dx="2272" dy="745" grid="1" gridSize="10" guides="1" tooltips="1" connect="1" arrows="1" fold="1" page="1" pageScale="1" pageWidth="850" pageHeight="1100" math="0" shadow="0">
      <root>
        <mxCell id="FPqVm43Fh0bOIhAW5Pn_-0" />
        <mxCell id="FPqVm43Fh0bOIhAW5Pn_-1" parent="FPqVm43Fh0bOIhAW5Pn_-0" />
        <mxCell id="FPqVm43Fh0bOIhAW5Pn_-2" value="Node" style="rounded=0;whiteSpace=wrap;html=1;" vertex="1" parent="FPqVm43Fh0bOIhAW5Pn_-1">
          <mxGeometry x="150" y="150" width="550" height="70" as="geometry" />
        </mxCell>
        <mxCell id="FPqVm43Fh0bOIhAW5Pn_-3" value="Node" style="rounded=0;whiteSpace=wrap;html=1;" vertex="1" parent="FPqVm43Fh0bOIhAW5Pn_-1">
          <mxGeometry x="160" y="470" width="550" height="70" as="geometry" />
        </mxCell>
        <mxCell id="FPqVm43Fh0bOIhAW5Pn_-4" value="" style="whiteSpace=wrap;html=1;aspect=fixed;" vertex="1" parent="FPqVm43Fh0bOIhAW5Pn_-1">
          <mxGeometry x="-160" y="350" width="170" height="170" as="geometry" />
        </mxCell>
        <mxCell id="FPqVm43Fh0bOIhAW5Pn_-5" value="APIServer" style="rounded=0;whiteSpace=wrap;html=1;" vertex="1" parent="FPqVm43Fh0bOIhAW5Pn_-1">
          <mxGeometry x="-160" y="290" width="170" height="60" as="geometry" />
        </mxCell>
        <mxCell id="FPqVm43Fh0bOIhAW5Pn_-6" value="&lt;h3&gt;Prometheus ServerPOD&lt;/h3&gt;" style="whiteSpace=wrap;html=1;aspect=fixed;" vertex="1" parent="FPqVm43Fh0bOIhAW5Pn_-1">
          <mxGeometry x="345" y="70" width="80" height="80" as="geometry" />
        </mxCell>
        <mxCell id="FPqVm43Fh0bOIhAW5Pn_-7" value="&lt;h3&gt;kube-State-Metrics&lt;/h3&gt;" style="whiteSpace=wrap;html=1;aspect=fixed;" vertex="1" parent="FPqVm43Fh0bOIhAW5Pn_-1">
          <mxGeometry x="150" y="70" width="80" height="80" as="geometry" />
        </mxCell>
        <mxCell id="FPqVm43Fh0bOIhAW5Pn_-9" value="&lt;h3&gt;Node Expoter&lt;/h3&gt;" style="whiteSpace=wrap;html=1;aspect=fixed;" vertex="1" parent="FPqVm43Fh0bOIhAW5Pn_-1">
          <mxGeometry x="610" y="70" width="80" height="80" as="geometry" />
        </mxCell>
        <mxCell id="FPqVm43Fh0bOIhAW5Pn_-10" value="&lt;h3&gt;Node Expoter&lt;/h3&gt;" style="whiteSpace=wrap;html=1;aspect=fixed;" vertex="1" parent="FPqVm43Fh0bOIhAW5Pn_-1">
          <mxGeometry x="630" y="390" width="80" height="80" as="geometry" />
        </mxCell>
        <mxCell id="FPqVm43Fh0bOIhAW5Pn_-12" style="edgeStyle=orthogonalEdgeStyle;rounded=0;orthogonalLoop=1;jettySize=auto;html=1;exitX=0.25;exitY=0;exitDx=0;exitDy=0;" edge="1" parent="FPqVm43Fh0bOIhAW5Pn_-1" source="FPqVm43Fh0bOIhAW5Pn_-11">
          <mxGeometry relative="1" as="geometry">
            <mxPoint x="190" y="380" as="targetPoint" />
          </mxGeometry>
        </mxCell>
        <mxCell id="FPqVm43Fh0bOIhAW5Pn_-11" value="&lt;h3&gt;alertManager email&amp;nbsp; &amp;nbsp; &amp;nbsp;slack&lt;/h3&gt;&lt;h3&gt;pagerduty&amp;nbsp;&lt;/h3&gt;" style="whiteSpace=wrap;html=1;aspect=fixed;" vertex="1" parent="FPqVm43Fh0bOIhAW5Pn_-1">
          <mxGeometry x="160" y="380" width="90" height="90" as="geometry" />
        </mxCell>
        <mxCell id="FPqVm43Fh0bOIhAW5Pn_-13" value="" style="endArrow=classic;html=1;" edge="1" parent="FPqVm43Fh0bOIhAW5Pn_-1">
          <mxGeometry width="50" height="50" relative="1" as="geometry">
            <mxPoint y="150" as="sourcePoint" />
            <mxPoint x="-30" y="280" as="targetPoint" />
            <Array as="points">
              <mxPoint x="150" y="110" />
              <mxPoint y="150" />
            </Array>
          </mxGeometry>
        </mxCell>
        <mxCell id="FPqVm43Fh0bOIhAW5Pn_-14" value="" style="endArrow=classic;html=1;entryX=0;entryY=0.25;entryDx=0;entryDy=0;" edge="1" parent="FPqVm43Fh0bOIhAW5Pn_-1" target="FPqVm43Fh0bOIhAW5Pn_-6">
          <mxGeometry width="50" height="50" relative="1" as="geometry">
            <mxPoint x="345" y="140" as="sourcePoint" />
            <mxPoint x="395" y="90" as="targetPoint" />
          </mxGeometry>
        </mxCell>
        <mxCell id="FPqVm43Fh0bOIhAW5Pn_-15" value="" style="endArrow=classic;html=1;" edge="1" parent="FPqVm43Fh0bOIhAW5Pn_-1">
          <mxGeometry width="50" height="50" relative="1" as="geometry">
            <mxPoint x="340" y="120" as="sourcePoint" />
            <mxPoint x="230" y="110" as="targetPoint" />
          </mxGeometry>
        </mxCell>
        <mxCell id="FPqVm43Fh0bOIhAW5Pn_-16" value="" style="endArrow=classic;html=1;" edge="1" parent="FPqVm43Fh0bOIhAW5Pn_-1" target="FPqVm43Fh0bOIhAW5Pn_-9">
          <mxGeometry width="50" height="50" relative="1" as="geometry">
            <mxPoint x="425" y="135" as="sourcePoint" />
            <mxPoint x="475" y="85" as="targetPoint" />
          </mxGeometry>
        </mxCell>
      </root>
    </mxGraphModel>
  </diagram>
  <diagram id="XZ7lK_zm68o-h2IP3WOm" name="Page-3">
    <mxGraphModel dx="1038" dy="531" grid="1" gridSize="10" guides="1" tooltips="1" connect="1" arrows="1" fold="1" page="1" pageScale="1" pageWidth="850" pageHeight="1100" math="0" shadow="0">
      <root>
        <mxCell id="iT_CgOK72i7UKE8__DZr-0" />
        <mxCell id="iT_CgOK72i7UKE8__DZr-1" parent="iT_CgOK72i7UKE8__DZr-0" />
        <mxCell id="iT_CgOK72i7UKE8__DZr-2" value="&lt;h1&gt;RHEL SERVER 1&lt;/h1&gt;&lt;h1&gt;&lt;span style=&quot;font-family: &amp;#34;times new roman&amp;#34;&quot;&gt;&lt;font style=&quot;font-size: 14px&quot;&gt;54.87.221.158&lt;/font&gt;&lt;/span&gt;&lt;/h1&gt;" style="whiteSpace=wrap;html=1;aspect=fixed;" vertex="1" parent="iT_CgOK72i7UKE8__DZr-1">
          <mxGeometry x="90" y="240" width="160" height="160" as="geometry" />
        </mxCell>
        <mxCell id="iT_CgOK72i7UKE8__DZr-3" value="&lt;h2&gt;RHEL 8&amp;nbsp;&lt;/h2&gt;&lt;h1&gt;&lt;span style=&quot;font-family: &amp;#34;times new roman&amp;#34;&quot;&gt;&lt;b&gt;&lt;font style=&quot;font-size: 18px&quot;&gt;IP=54.196.160.163&lt;/font&gt;&lt;/b&gt;&lt;/span&gt;&lt;/h1&gt;&lt;h2&gt;&amp;nbsp;SERVER2..&lt;/h2&gt;" style="whiteSpace=wrap;html=1;aspect=fixed;" vertex="1" parent="iT_CgOK72i7UKE8__DZr-1">
          <mxGeometry x="510" y="110" width="160" height="160" as="geometry" />
        </mxCell>
        <mxCell id="iT_CgOK72i7UKE8__DZr-4" value="" style="endArrow=classic;html=1;entryX=0;entryY=0.5;entryDx=0;entryDy=0;" edge="1" parent="iT_CgOK72i7UKE8__DZr-1" target="iT_CgOK72i7UKE8__DZr-3">
          <mxGeometry width="50" height="50" relative="1" as="geometry">
            <mxPoint x="250" y="320" as="sourcePoint" />
            <mxPoint x="300" y="270" as="targetPoint" />
          </mxGeometry>
        </mxCell>
        <mxCell id="iT_CgOK72i7UKE8__DZr-5" value="&lt;h2&gt;ssh + username + serverIP&amp;nbsp;&lt;/h2&gt;" style="text;html=1;align=center;verticalAlign=middle;resizable=0;points=[];autosize=1;" vertex="1" parent="iT_CgOK72i7UKE8__DZr-1">
          <mxGeometry x="295" y="330" width="250" height="50" as="geometry" />
        </mxCell>
        <mxCell id="iT_CgOK72i7UKE8__DZr-7" value="&lt;h2&gt;PASSWORD OR SSHKEYS (.PEM)&amp;nbsp;&amp;nbsp;&lt;/h2&gt;" style="text;html=1;align=center;verticalAlign=middle;resizable=0;points=[];autosize=1;" vertex="1" parent="iT_CgOK72i7UKE8__DZr-1">
          <mxGeometry x="265" y="370" width="310" height="50" as="geometry" />
        </mxCell>
        <mxCell id="iT_CgOK72i7UKE8__DZr-8" value="&lt;h2&gt;ssh&amp;nbsp; Simon@IP&amp;nbsp;&lt;/h2&gt;" style="text;html=1;align=center;verticalAlign=middle;resizable=0;points=[];autosize=1;" vertex="1" parent="iT_CgOK72i7UKE8__DZr-1">
          <mxGeometry x="340" y="420" width="150" height="50" as="geometry" />
        </mxCell>
        <mxCell id="iT_CgOK72i7UKE8__DZr-9" value="&lt;h2&gt;ssh&amp;nbsp; ec2-user@54.196.160.163&lt;/h2&gt;&lt;span style=&quot;font-family: &amp;#34;times new roman&amp;#34; ; font-size: 10px&quot;&gt;54.196.160.163&lt;/span&gt;&lt;h2&gt;&amp;nbsp;&lt;/h2&gt;" style="text;html=1;align=center;verticalAlign=middle;resizable=0;points=[];autosize=1;" vertex="1" parent="iT_CgOK72i7UKE8__DZr-1">
          <mxGeometry x="270" y="460" width="270" height="110" as="geometry" />
        </mxCell>
        <mxCell id="iT_CgOK72i7UKE8__DZr-10" value="" style="endArrow=classic;html=1;" edge="1" parent="iT_CgOK72i7UKE8__DZr-1">
          <mxGeometry width="50" height="50" relative="1" as="geometry">
            <mxPoint x="400" y="520" as="sourcePoint" />
            <mxPoint x="450" y="470" as="targetPoint" />
          </mxGeometry>
        </mxCell>
        <mxCell id="iT_CgOK72i7UKE8__DZr-11" value="" style="endArrow=classic;startArrow=classic;html=1;entryX=0;entryY=0.125;entryDx=0;entryDy=0;entryPerimeter=0;" edge="1" parent="iT_CgOK72i7UKE8__DZr-1" target="iT_CgOK72i7UKE8__DZr-3">
          <mxGeometry width="50" height="50" relative="1" as="geometry">
            <mxPoint x="250" y="260" as="sourcePoint" />
            <mxPoint x="300" y="210" as="targetPoint" />
          </mxGeometry>
        </mxCell>
        <mxCell id="iT_CgOK72i7UKE8__DZr-12" value="&lt;h1&gt;scp&lt;/h1&gt;" style="edgeLabel;html=1;align=center;verticalAlign=middle;resizable=0;points=[];" vertex="1" connectable="0" parent="iT_CgOK72i7UKE8__DZr-11">
          <mxGeometry x="-0.5508" y="-4" relative="1" as="geometry">
            <mxPoint y="-1" as="offset" />
          </mxGeometry>
        </mxCell>
      </root>
    </mxGraphModel>
  </diagram>
  <diagram id="DC6WTU7i8CnzOLgKxFuQ" name="Page-4">
    <mxGraphModel dx="1038" dy="531" grid="1" gridSize="10" guides="1" tooltips="1" connect="1" arrows="1" fold="1" page="1" pageScale="1" pageWidth="850" pageHeight="1100" math="0" shadow="0">
      <root>
        <mxCell id="Eew5Sz8zIGccaaO--Wnb-0" />
        <mxCell id="Eew5Sz8zIGccaaO--Wnb-1" parent="Eew5Sz8zIGccaaO--Wnb-0" />
        <mxCell id="Eew5Sz8zIGccaaO--Wnb-2" value="" style="shape=cylinder3;whiteSpace=wrap;html=1;boundedLbl=1;backgroundOutline=1;size=15;" vertex="1" parent="Eew5Sz8zIGccaaO--Wnb-1">
          <mxGeometry x="40" y="100" width="170" height="200" as="geometry" />
        </mxCell>
        <mxCell id="Eew5Sz8zIGccaaO--Wnb-3" value="" style="ellipse;shape=cloud;whiteSpace=wrap;html=1;" vertex="1" parent="Eew5Sz8zIGccaaO--Wnb-1">
          <mxGeometry x="260" y="40" width="1040" height="670" as="geometry" />
        </mxCell>
        <mxCell id="Eew5Sz8zIGccaaO--Wnb-8" style="edgeStyle=orthogonalEdgeStyle;rounded=0;orthogonalLoop=1;jettySize=auto;html=1;exitX=0.25;exitY=0.25;exitDx=0;exitDy=0;exitPerimeter=0;" edge="1" parent="Eew5Sz8zIGccaaO--Wnb-1" source="Eew5Sz8zIGccaaO--Wnb-4" target="Eew5Sz8zIGccaaO--Wnb-3">
          <mxGeometry relative="1" as="geometry" />
        </mxCell>
        <mxCell id="Eew5Sz8zIGccaaO--Wnb-5" value="" style="shape=cylinder3;whiteSpace=wrap;html=1;boundedLbl=1;backgroundOutline=1;size=15;" vertex="1" parent="Eew5Sz8zIGccaaO--Wnb-1">
          <mxGeometry x="650" y="250" width="60" height="80" as="geometry" />
        </mxCell>
        <mxCell id="Eew5Sz8zIGccaaO--Wnb-6" value="" style="shape=cylinder3;whiteSpace=wrap;html=1;boundedLbl=1;backgroundOutline=1;size=15;" vertex="1" parent="Eew5Sz8zIGccaaO--Wnb-1">
          <mxGeometry x="990" y="210" width="60" height="80" as="geometry" />
        </mxCell>
        <mxCell id="Eew5Sz8zIGccaaO--Wnb-7" value="" style="shape=cylinder3;whiteSpace=wrap;html=1;boundedLbl=1;backgroundOutline=1;size=15;" vertex="1" parent="Eew5Sz8zIGccaaO--Wnb-1">
          <mxGeometry x="450" y="220" width="60" height="80" as="geometry" />
        </mxCell>
        <mxCell id="Eew5Sz8zIGccaaO--Wnb-9" value="" style="endArrow=classic;startArrow=classic;html=1;" edge="1" parent="Eew5Sz8zIGccaaO--Wnb-1" source="Eew5Sz8zIGccaaO--Wnb-4">
          <mxGeometry width="50" height="50" relative="1" as="geometry">
            <mxPoint x="590" y="400" as="sourcePoint" />
            <mxPoint x="640" y="350" as="targetPoint" />
          </mxGeometry>
        </mxCell>
        <mxCell id="Eew5Sz8zIGccaaO--Wnb-10" value="" style="endArrow=classic;startArrow=classic;html=1;" edge="1" parent="Eew5Sz8zIGccaaO--Wnb-1" target="Eew5Sz8zIGccaaO--Wnb-4">
          <mxGeometry width="50" height="50" relative="1" as="geometry">
            <mxPoint x="590" y="390" as="sourcePoint" />
            <mxPoint x="640" y="340" as="targetPoint" />
          </mxGeometry>
        </mxCell>
        <mxCell id="Eew5Sz8zIGccaaO--Wnb-13" value="Actor" style="shape=umlActor;verticalLabelPosition=bottom;verticalAlign=top;html=1;outlineConnect=0;" vertex="1" parent="Eew5Sz8zIGccaaO--Wnb-1">
          <mxGeometry x="1220" y="580" width="30" height="60" as="geometry" />
        </mxCell>
        <mxCell id="Eew5Sz8zIGccaaO--Wnb-14" value="" style="shape=internalStorage;whiteSpace=wrap;html=1;backgroundOutline=1;" vertex="1" parent="Eew5Sz8zIGccaaO--Wnb-1">
          <mxGeometry x="860" y="410" width="80" height="80" as="geometry" />
        </mxCell>
        <mxCell id="Eew5Sz8zIGccaaO--Wnb-15" value="" style="shape=internalStorage;whiteSpace=wrap;html=1;backgroundOutline=1;" vertex="1" parent="Eew5Sz8zIGccaaO--Wnb-1">
          <mxGeometry x="840" y="250" width="80" height="80" as="geometry" />
        </mxCell>
        <mxCell id="Eew5Sz8zIGccaaO--Wnb-16" value="" style="rounded=0;whiteSpace=wrap;html=1;" vertex="1" parent="Eew5Sz8zIGccaaO--Wnb-1">
          <mxGeometry x="1010" y="310" width="120" height="60" as="geometry" />
        </mxCell>
        <mxCell id="Eew5Sz8zIGccaaO--Wnb-4" value="" style="ellipse;shape=cloud;whiteSpace=wrap;html=1;" vertex="1" parent="Eew5Sz8zIGccaaO--Wnb-1">
          <mxGeometry x="520" y="180" width="700" height="440" as="geometry" />
        </mxCell>
        <mxCell id="Eew5Sz8zIGccaaO--Wnb-17" value="" style="endArrow=classic;startArrow=classic;html=1;" edge="1" parent="Eew5Sz8zIGccaaO--Wnb-1" source="Eew5Sz8zIGccaaO--Wnb-3" target="Eew5Sz8zIGccaaO--Wnb-4">
          <mxGeometry width="50" height="50" relative="1" as="geometry">
            <mxPoint x="278.8942258058787" y="285.5168260367641" as="sourcePoint" />
            <mxPoint x="640" y="350" as="targetPoint" />
          </mxGeometry>
        </mxCell>
      </root>
    </mxGraphModel>
  </diagram>
  <diagram id="BCDf6UcZKEE5yJ2LfCu0" name="Page-5">
    <mxGraphModel dx="2272" dy="1845" grid="1" gridSize="10" guides="1" tooltips="1" connect="1" arrows="1" fold="1" page="1" pageScale="1" pageWidth="850" pageHeight="1100" math="0" shadow="0">
      <root>
        <mxCell id="mX0pUgJSCo-GgDC4KR7A-0" />
        <mxCell id="mX0pUgJSCo-GgDC4KR7A-1" parent="mX0pUgJSCo-GgDC4KR7A-0" />
        <mxCell id="mX0pUgJSCo-GgDC4KR7A-2" value="" style="ellipse;shape=cloud;whiteSpace=wrap;html=1;" vertex="1" parent="mX0pUgJSCo-GgDC4KR7A-1">
          <mxGeometry x="30" y="-10" width="760" height="520" as="geometry" />
        </mxCell>
        <mxCell id="mX0pUgJSCo-GgDC4KR7A-3" value="&lt;h1&gt;EC2&lt;/h1&gt;&lt;div&gt;&lt;b&gt;&lt;font style=&quot;font-size: 14px&quot;&gt;.ssh/authorized_keys&lt;/font&gt;&lt;/b&gt;&lt;/div&gt;&lt;div&gt;&lt;b&gt;&lt;font style=&quot;font-size: 14px&quot;&gt;&lt;br&gt;&lt;/font&gt;&lt;/b&gt;&lt;/div&gt;&lt;div&gt;&lt;b&gt;&lt;font style=&quot;font-size: 14px&quot;&gt;&lt;br&gt;&lt;/font&gt;&lt;/b&gt;&lt;/div&gt;&lt;div&gt;&lt;b&gt;&lt;font style=&quot;font-size: 14px&quot;&gt;&lt;br&gt;&lt;/font&gt;&lt;/b&gt;&lt;/div&gt;&lt;div&gt;&lt;b&gt;&lt;font style=&quot;font-size: 14px&quot;&gt;&amp;nbsp;&lt;/font&gt;&lt;/b&gt;&lt;/div&gt;" style="whiteSpace=wrap;html=1;aspect=fixed;" vertex="1" parent="mX0pUgJSCo-GgDC4KR7A-1">
          <mxGeometry x="470" y="150" width="160" height="160" as="geometry" />
        </mxCell>
        <mxCell id="mX0pUgJSCo-GgDC4KR7A-4" value="&lt;h3&gt;SG&lt;br&gt;0.0.0.0/0&lt;br&gt;10.10.10.0/16&lt;/h3&gt;&lt;h2&gt;22&lt;/h2&gt;" style="rounded=0;whiteSpace=wrap;html=1;" vertex="1" parent="mX0pUgJSCo-GgDC4KR7A-1">
          <mxGeometry x="370" y="150" width="100" height="160" as="geometry" />
        </mxCell>
        <mxCell id="mX0pUgJSCo-GgDC4KR7A-7" value="" style="edgeStyle=orthogonalEdgeStyle;rounded=0;orthogonalLoop=1;jettySize=auto;html=1;" edge="1" parent="mX0pUgJSCo-GgDC4KR7A-1" source="mX0pUgJSCo-GgDC4KR7A-5" target="mX0pUgJSCo-GgDC4KR7A-6">
          <mxGeometry relative="1" as="geometry" />
        </mxCell>
        <mxCell id="mX0pUgJSCo-GgDC4KR7A-5" value="&lt;h3&gt;&lt;font face=&quot;Comic Sans MS&quot;&gt;INBOUND&lt;/font&gt;&lt;/h3&gt;&lt;h2&gt;&lt;font face=&quot;Lucida Console&quot;&gt;OUTBOUND&lt;/font&gt;&lt;/h2&gt;" style="text;html=1;align=center;verticalAlign=middle;resizable=0;points=[];autosize=1;" vertex="1" parent="mX0pUgJSCo-GgDC4KR7A-1">
          <mxGeometry x="220" y="-30" width="110" height="80" as="geometry" />
        </mxCell>
        <mxCell id="mX0pUgJSCo-GgDC4KR7A-6" value="&lt;h3&gt;&lt;font face=&quot;Comic Sans MS&quot;&gt;INBOUND&lt;/font&gt;&lt;/h3&gt;&lt;h2&gt;&lt;font face=&quot;Lucida Console&quot;&gt;OUTBOUND&lt;/font&gt;&lt;/h2&gt;" style="text;html=1;align=center;verticalAlign=middle;resizable=0;points=[];autosize=1;" vertex="1" parent="mX0pUgJSCo-GgDC4KR7A-1">
          <mxGeometry x="410" y="-30" width="110" height="80" as="geometry" />
        </mxCell>
        <mxCell id="mX0pUgJSCo-GgDC4KR7A-11" value="" style="endArrow=classic;html=1;" edge="1" parent="mX0pUgJSCo-GgDC4KR7A-1">
          <mxGeometry width="50" height="50" relative="1" as="geometry">
            <mxPoint x="-60" y="380" as="sourcePoint" />
            <mxPoint x="375.0393492154258" y="307.11006572409383" as="targetPoint" />
          </mxGeometry>
        </mxCell>
        <mxCell id="mX0pUgJSCo-GgDC4KR7A-14" value="&lt;h2&gt;ssh&lt;/h2&gt;" style="edgeLabel;html=1;align=center;verticalAlign=middle;resizable=0;points=[];" vertex="1" connectable="0" parent="mX0pUgJSCo-GgDC4KR7A-11">
          <mxGeometry x="-0.4815" relative="1" as="geometry">
            <mxPoint as="offset" />
          </mxGeometry>
        </mxCell>
        <mxCell id="mX0pUgJSCo-GgDC4KR7A-10" value="Actor" style="shape=umlActor;verticalLabelPosition=bottom;verticalAlign=top;html=1;outlineConnect=0;" vertex="1" parent="mX0pUgJSCo-GgDC4KR7A-1">
          <mxGeometry x="-100" y="350" width="30" height="60" as="geometry" />
        </mxCell>
        <mxCell id="mX0pUgJSCo-GgDC4KR7A-12" value="" style="endArrow=classic;html=1;" edge="1" parent="mX0pUgJSCo-GgDC4KR7A-1" target="mX0pUgJSCo-GgDC4KR7A-10">
          <mxGeometry width="50" height="50" relative="1" as="geometry">
            <mxPoint x="-240" y="410" as="sourcePoint" />
            <mxPoint x="270.0393492154258" y="322.11006572409383" as="targetPoint" />
          </mxGeometry>
        </mxCell>
        <mxCell id="mX0pUgJSCo-GgDC4KR7A-15" value="Text" style="text;html=1;align=center;verticalAlign=middle;resizable=0;points=[];autosize=1;" vertex="1" parent="mX0pUgJSCo-GgDC4KR7A-1">
          <mxGeometry x="-30" y="380" width="40" height="20" as="geometry" />
        </mxCell>
      </root>
    </mxGraphModel>
  </diagram>
  <diagram id="lj7ZfW9AliorHn5ZPNwv" name="Page-6">
    <mxGraphModel dx="2272" dy="1845" grid="1" gridSize="10" guides="1" tooltips="1" connect="1" arrows="1" fold="1" page="1" pageScale="1" pageWidth="850" pageHeight="1100" math="0" shadow="0">
      <root>
        <mxCell id="xLtjS8_ypO3BI9_I1uH4-0" />
        <mxCell id="xLtjS8_ypO3BI9_I1uH4-1" parent="xLtjS8_ypO3BI9_I1uH4-0" />
        <mxCell id="xLtjS8_ypO3BI9_I1uH4-3" value="" style="ellipse;shape=cloud;whiteSpace=wrap;html=1;" vertex="1" parent="xLtjS8_ypO3BI9_I1uH4-1">
          <mxGeometry x="360" y="-720" width="900" height="620" as="geometry" />
        </mxCell>
        <mxCell id="xLtjS8_ypO3BI9_I1uH4-4" value="" style="outlineConnect=0;dashed=0;verticalLabelPosition=bottom;verticalAlign=top;align=center;html=1;shape=mxgraph.aws3.ec2;fillColor=#F58534;gradientColor=none;" vertex="1" parent="xLtjS8_ypO3BI9_I1uH4-1">
          <mxGeometry x="520" y="-430" width="410" height="210" as="geometry" />
        </mxCell>
        <mxCell id="xLtjS8_ypO3BI9_I1uH4-5" value="" style="whiteSpace=wrap;html=1;aspect=fixed;" vertex="1" parent="xLtjS8_ypO3BI9_I1uH4-1">
          <mxGeometry x="-20" y="-380" width="310" height="310" as="geometry" />
        </mxCell>
        <mxCell id="xLtjS8_ypO3BI9_I1uH4-6" value="Actor" style="shape=umlActor;verticalLabelPosition=bottom;verticalAlign=top;html=1;outlineConnect=0;" vertex="1" parent="xLtjS8_ypO3BI9_I1uH4-1">
          <mxGeometry x="-20" y="-160" width="60" height="70" as="geometry" />
        </mxCell>
        <mxCell id="xLtjS8_ypO3BI9_I1uH4-7" value="&lt;h1&gt;ssh client&lt;/h1&gt;&lt;h2&gt;Git bash&lt;/h2&gt;&lt;h2&gt;putty&lt;/h2&gt;" style="shape=trapezoid;perimeter=trapezoidPerimeter;whiteSpace=wrap;html=1;fixedSize=1;" vertex="1" parent="xLtjS8_ypO3BI9_I1uH4-1">
          <mxGeometry x="30" y="-340" width="230" height="190" as="geometry" />
        </mxCell>
        <mxCell id="xLtjS8_ypO3BI9_I1uH4-8" value="RHEL" style="shape=parallelogram;perimeter=parallelogramPerimeter;whiteSpace=wrap;html=1;fixedSize=1;" vertex="1" parent="xLtjS8_ypO3BI9_I1uH4-1">
          <mxGeometry x="560" y="-460" width="120" height="60" as="geometry" />
        </mxCell>
        <mxCell id="xLtjS8_ypO3BI9_I1uH4-9" value="" style="endArrow=classic;startArrow=classic;html=1;" edge="1" parent="xLtjS8_ypO3BI9_I1uH4-1">
          <mxGeometry width="50" height="50" relative="1" as="geometry">
            <mxPoint x="245.02479338842977" y="-235.2644628099174" as="sourcePoint" />
            <mxPoint x="600" y="-403" as="targetPoint" />
          </mxGeometry>
        </mxCell>
        <mxCell id="xLtjS8_ypO3BI9_I1uH4-10" value="ssh" style="edgeLabel;html=1;align=center;verticalAlign=middle;resizable=0;points=[];" vertex="1" connectable="0" parent="xLtjS8_ypO3BI9_I1uH4-9">
          <mxGeometry x="-0.299" y="1" relative="1" as="geometry">
            <mxPoint as="offset" />
          </mxGeometry>
        </mxCell>
        <mxCell id="xLtjS8_ypO3BI9_I1uH4-11" value="Text" style="edgeLabel;html=1;align=center;verticalAlign=middle;resizable=0;points=[];" vertex="1" connectable="0" parent="xLtjS8_ypO3BI9_I1uH4-9">
          <mxGeometry x="-0.3448" y="3" relative="1" as="geometry">
            <mxPoint x="-30.38" y="-66.91" as="offset" />
          </mxGeometry>
        </mxCell>
        <mxCell id="xLtjS8_ypO3BI9_I1uH4-12" value="&lt;h2&gt;username&lt;/h2&gt;&lt;h2&gt;password&lt;br&gt;private key&lt;/h2&gt;" style="text;html=1;align=center;verticalAlign=middle;resizable=0;points=[];autosize=1;" vertex="1" parent="xLtjS8_ypO3BI9_I1uH4-1">
          <mxGeometry x="315" y="-280" width="110" height="90" as="geometry" />
        </mxCell>
      </root>
    </mxGraphModel>
  </diagram>
</mxfile>
